<?xml version="1.0" standalone="no"?>
<!DOCTYPE svg PUBLIC "-//W3C//DTD SVG 20010904//EN"
 "http://www.w3.org/TR/2001/REC-SVG-20010904/DTD/svg10.dtd">
<svg version="1.0" xmlns="http://www.w3.org/2000/svg"
 width="512.000000pt" height="512.000000pt" viewBox="0 0 512.000000 512.000000"
 preserveAspectRatio="xMidYMid meet">

<g transform="translate(0.000000,512.000000) scale(0.100000,-0.100000)"
fill="#000000" stroke="none">
<path d="M3093 3608 c-6 -7 -14 -31 -17 -53 -4 -22 -16 -59 -26 -82 l-19 -43
-628 2 c-562 2 -631 0 -658 -14 -39 -21 -81 -66 -94 -101 -7 -18 -11 -174 -11
-440 0 -462 -2 -450 74 -512 l38 -30 247 -3 c237 -3 248 -2 265 17 18 20 18
21 -8 31 -16 6 -121 10 -247 10 -177 0 -226 3 -249 15 -59 31 -60 35 -60 477
0 387 1 404 20 436 38 62 36 62 600 62 401 0 510 -3 510 -12 0 -19 -38 -78
-50 -78 -6 0 -15 -11 -21 -24 -14 -29 7 -69 83 -158 32 -37 46 -62 42 -73 -5
-11 0 -18 14 -22 11 -2 23 -15 26 -26 7 -28 5 -33 -11 -29 -7 2 -13 -2 -13 -8
0 -9 14 -14 33 -11 4 0 7 -6 7 -15 0 -9 6 -22 14 -28 8 -6 17 -26 21 -44 l7
-33 -66 2 c-37 1 -70 7 -73 12 -3 6 -1 7 5 3 7 -4 12 -1 12 8 0 20 -26 21 -34
1 -3 -8 -11 -14 -18 -13 -7 2 -12 -2 -13 -9 0 -6 -3 -15 -7 -19 -4 -3 -6 3 -3
15 2 11 0 21 -6 21 -5 0 -9 -4 -9 -10 0 -6 -47 -10 -120 -10 -102 0 -122 -2
-127 -16 -13 -34 11 -49 88 -55 41 -3 68 -6 61 -7 -22 -3 -74 -60 -59 -65 21
-7 2 -17 -39 -20 -23 -1 -44 -9 -52 -19 -7 -9 -22 -18 -34 -20 -11 -2 -26 -11
-32 -21 -9 -15 -7 -22 11 -36 17 -14 19 -21 10 -31 -10 -10 -9 -11 3 -5 12 7
13 6 4 -6 -6 -8 -10 -22 -9 -31 3 -14 -4 -18 -24 -18 -15 0 -42 -11 -61 -25
-19 -14 -43 -25 -54 -25 -12 0 -30 -7 -40 -15 -11 -8 -14 -15 -7 -15 7 0 9 -4
6 -10 -3 -5 0 -10 7 -10 8 0 19 5 26 10 9 7 9 7 2 -2 -7 -8 -4 -18 7 -30 15
-17 43 -18 434 -18 272 0 428 4 446 11 40 15 73 48 94 94 17 36 19 71 19 387
0 392 -7 361 81 374 64 10 79 20 79 54 0 31 -3 32 -105 56 -108 25 -189 117
-211 239 -3 22 -11 48 -16 58 -10 20 -51 23 -65 5z m113 -257 c28 -31 65 -58
104 -75 l61 -28 -58 -27 c-83 -40 -118 -73 -157 -151 l-34 -68 -17 43 c-31 82
-128 170 -215 195 -23 7 -24 8 -5 14 107 36 178 99 217 193 l22 54 20 -51 c10
-28 39 -73 62 -99z m-613 -718 c-7 -2 -19 -2 -25 0 -7 3 -2 5 12 5 14 0 19 -2
13 -5z"/>
<path d="M2022 3338 c-6 -6 -12 -18 -12 -25 0 -25 -40 -92 -61 -104 -12 -6
-40 -16 -63 -23 -33 -10 -41 -16 -41 -36 0 -19 9 -26 47 -39 61 -21 84 -43
107 -105 15 -41 23 -51 42 -51 19 0 27 10 42 50 36 98 57 109 232 115 l140 5
0 25 0 25 -140 6 c-176 7 -199 18 -234 115 -17 50 -37 64 -59 42z m57 -227
l-39 -39 -41 41 c-27 28 -37 43 -27 46 7 2 26 18 41 35 l29 32 38 -38 38 -38
-39 -39z"/>
<path d="M1880 2804 c-10 -11 -11 -20 -3 -32 8 -14 30 -18 109 -20 129 -4 146
1 142 36 l-3 27 -116 3 c-97 2 -118 0 -129 -14z"/>
<path d="M2204 2806 c-3 -8 -4 -23 -2 -33 3 -16 15 -18 122 -18 100 0 120 3
129 17 8 12 7 21 -2 32 -19 22 -239 24 -247 2z"/>
<path d="M1879 2604 c-9 -11 -10 -20 -2 -32 15 -25 202 -30 220 -6 9 12 9 22
2 35 -8 17 -22 19 -108 19 -78 0 -101 -3 -112 -16z"/>
<path d="M2171 2606 c-7 -8 -10 -24 -6 -36 6 -18 14 -20 104 -20 78 0 101 3
112 16 9 11 10 20 2 32 -14 24 -194 30 -212 8z"/>
<path d="M1955 2025 c-20 -19 -25 -34 -25 -76 0 -29 -3 -49 -6 -46 -4 3 -15 2
-26 -4 -26 -14 -20 -53 9 -57 21 -3 22 -8 25 -109 2 -86 6 -108 20 -116 12 -8
21 -7 32 2 13 11 16 35 16 117 l0 103 38 3 c32 3 37 7 40 31 3 26 1 27 -38 27
l-41 0 3 43 c3 41 4 42 40 45 72 6 56 62 -19 62 -33 0 -50 -6 -68 -25z"/>
<path d="M2423 2043 c-9 -3 -13 -29 -13 -80 0 -61 -3 -74 -14 -70 -72 28 -150
9 -163 -40 -4 -15 -8 -66 -8 -112 1 -79 2 -85 28 -107 21 -18 40 -24 75 -24
26 0 53 4 61 9 9 6 21 5 33 -2 13 -9 23 -9 36 -1 15 10 17 33 20 209 3 221 -2
240 -55 218z m-33 -223 c29 -29 27 -94 -5 -125 -28 -29 -57 -32 -79 -9 -19 19
-22 124 -4 142 19 19 66 14 88 -8z"/>
<path d="M2801 2036 c-8 -9 -11 -74 -9 -211 3 -169 5 -199 19 -208 9 -6 24 -7
33 -4 14 6 16 31 16 216 0 181 -2 210 -16 215 -23 9 -30 8 -43 -8z"/>
<path d="M3202 2038 c-7 -7 -12 -39 -12 -81 0 -59 -2 -68 -16 -63 -40 15 -66
17 -98 6 -56 -18 -66 -41 -66 -146 0 -85 2 -93 26 -118 21 -20 36 -26 71 -26
24 0 53 5 63 10 14 7 25 7 38 -1 11 -7 27 -9 36 -6 15 6 16 29 14 219 -3 205
-4 213 -23 216 -11 1 -26 -3 -33 -10z m-27 -214 c12 -12 15 -31 13 -72 -3 -49
-6 -58 -30 -71 -21 -12 -31 -13 -52 -3 -24 11 -26 16 -26 81 0 46 4 71 13 74
26 11 66 6 82 -9z"/>
<path d="M3777 2043 c-4 -3 -7 -39 -7 -80 l0 -73 -27 6 c-16 3 -34 8 -42 10
-7 2 -31 -1 -52 -6 -54 -15 -69 -48 -69 -149 0 -71 3 -83 26 -110 23 -27 32
-31 78 -31 29 0 57 5 63 11 8 8 17 7 32 -3 16 -9 25 -10 39 -2 15 10 17 33 20
209 2 137 -1 202 -9 211 -12 15 -41 19 -52 7z m-36 -213 c15 -9 19 -22 19 -67
0 -81 -35 -112 -91 -83 -16 9 -19 22 -19 73 0 36 5 68 12 75 15 15 53 16 79 2z"/>
<path d="M2120 1995 c-26 -32 13 -81 48 -59 34 22 22 74 -18 74 -10 0 -23 -7
-30 -15z"/>
<path d="M2912 1998 c-25 -25 -6 -68 30 -68 9 0 22 9 28 19 13 25 13 27 -6 45
-19 19 -36 20 -52 4z"/>
<path d="M1024 1925 c-13 -32 4 -45 58 -46 102 -3 118 -8 118 -40 0 -17 -7
-19 -74 -19 -59 0 -78 -4 -100 -21 -23 -18 -26 -27 -26 -83 0 -84 22 -106 104
-106 31 0 66 5 76 10 13 7 21 7 25 0 10 -16 52 -12 59 6 3 9 6 72 6 140 0 119
-1 126 -25 149 -22 23 -32 25 -120 25 -76 0 -97 -3 -101 -15z m166 -205 c0
-36 -26 -52 -78 -48 -30 2 -38 7 -40 26 -6 44 4 52 63 52 54 0 55 0 55 -30z"/>
<path d="M1322 1898 c-9 -9 -12 -68 -12 -205 0 -174 2 -193 18 -202 36 -19 52
4 52 75 0 61 1 64 19 54 37 -19 107 -12 138 14 27 23 28 27 28 120 0 89 -2 97
-26 121 -32 33 -87 42 -128 22 -26 -13 -32 -13 -42 -1 -14 17 -31 18 -47 2z
m168 -77 c18 -34 12 -116 -9 -135 -24 -22 -76 -14 -91 14 -17 33 -12 98 10
120 26 26 76 26 90 1z"/>
<path d="M1612 1898 c-9 -9 -12 -68 -12 -205 0 -174 2 -193 18 -202 36 -19 52
4 52 75 0 61 1 64 19 54 11 -5 40 -10 66 -10 35 0 51 6 70 25 23 22 25 31 25
123 0 90 -2 100 -23 120 -30 29 -77 37 -122 22 -27 -9 -40 -9 -48 -1 -14 14
-30 14 -45 -1z m168 -77 c5 -11 10 -42 10 -70 0 -43 -4 -53 -25 -67 -26 -17
-55 -13 -80 12 -20 20 -19 93 1 122 20 29 79 31 94 3z"/>
<path d="M3325 1896 c-16 -12 -18 -18 -9 -33 9 -14 28 -19 85 -23 66 -4 74 -7
74 -25 0 -18 -8 -20 -70 -23 -90 -4 -105 -17 -105 -89 0 -72 21 -93 93 -93 28
0 58 4 66 9 9 6 21 5 33 -2 13 -9 23 -9 36 -1 14 9 17 30 20 126 4 154 -2 162
-120 166 -63 3 -88 0 -103 -12z m150 -177 c4 -5 -1 -19 -11 -30 -33 -37 -116
-16 -100 26 6 18 101 22 111 4z"/>
<path d="M2127 1894 c-4 -4 -7 -67 -7 -141 0 -114 2 -135 16 -140 9 -3 24 -2
33 4 13 9 16 32 16 144 l0 134 -25 3 c-14 2 -29 0 -33 -4z"/>
<path d="M2537 1882 c-14 -15 -17 -40 -17 -125 0 -139 7 -147 126 -147 62 0
85 4 95 16 25 31 -1 49 -82 54 -57 4 -74 8 -74 20 0 11 17 16 72 20 40 3 78
11 85 18 20 20 16 117 -7 142 -15 17 -30 20 -100 20 -67 0 -85 -3 -98 -18z
m151 -74 c3 -28 2 -28 -52 -28 -58 0 -64 6 -50 45 5 12 17 15 53 13 42 -3 46
-5 49 -30z"/>
<path d="M2907 1894 c-4 -4 -7 -65 -7 -134 0 -134 7 -156 47 -148 16 3 18 16
18 143 l0 140 -25 3 c-14 2 -29 0 -33 -4z"/>
<path d="M3894 1879 c-16 -18 -19 -37 -19 -126 0 -99 1 -106 24 -124 20 -17
37 -19 109 -17 67 2 87 7 96 20 17 28 -6 42 -69 39 -70 -3 -95 5 -95 30 0 17
7 19 70 19 57 0 74 4 90 20 28 28 27 98 -1 134 -19 24 -26 26 -103 26 -72 0
-86 -3 -102 -21z m154 -71 c3 -28 2 -28 -52 -28 -52 0 -56 2 -56 23 0 33 8 38
60 35 41 -3 45 -6 48 -30z"/>
</g>
</svg>
