<?xml version="1.0" encoding="UTF-8"?>
<svg version="1.1" xmlns="http://www.w3.org/2000/svg" width="512" height="512">
<path d="M0 0 C168.96 0 337.92 0 512 0 C512 168.96 512 337.92 512 512 C343.04 512 174.08 512 0 512 C0 343.04 0 174.08 0 0 Z " fill="#E8ECED" transform="translate(0,0)"/>
<path d="M0 0 C2.5 0.25 2.5 0.25 4.5 2.25 C4.83518118 3.92590588 5.09552495 5.61723342 5.3125 7.3125 C6.68049443 15.35209802 9.9348928 21.86571245 16.4140625 26.97265625 C22.47353435 30.68323171 29.67900824 32.43106886 36.5 34.25 C36.6875 37.125 36.6875 37.125 36.5 40.25 C33.33433427 42.36044382 30.98802585 43.00552077 27.3125 43.875 C26.22582031 44.13539063 25.13914062 44.39578125 24.01953125 44.6640625 C23.18808594 44.85742188 22.35664063 45.05078125 21.5 45.25 C21.49857498 46.12172852 21.49714996 46.99345703 21.49568176 47.89160156 C21.47780891 56.13041598 21.4360688 64.36869615 21.36790943 72.60725403 C21.33370376 76.84224447 21.30853953 81.07687663 21.30444336 85.31201172 C21.30014649 89.40371424 21.27157023 93.49460945 21.22656822 97.58605957 C21.21363728 99.14240811 21.20926988 100.69885349 21.21384621 102.25524902 C21.2495941 118.1129334 21.2495941 118.1129334 15.5 124.25 C10.31994422 129.0600518 6.20017289 129.39705772 -0.62744141 129.37939453 C-1.86926933 129.38202301 -1.86926933 129.38202301 -3.13618469 129.38470459 C-5.87466523 129.38910869 -8.6130813 129.38619071 -11.3515625 129.3828125 C-13.25060031 129.38348582 -15.14963803 129.38445609 -17.04867554 129.38571167 C-21.02822694 129.38718658 -25.00775589 129.38504022 -28.98730469 129.38037109 C-34.10003247 129.37466618 -39.21270786 129.37795894 -44.32543373 129.38394356 C-48.24578246 129.38754812 -52.16611865 129.3864112 -56.08646774 129.38381577 C-57.97241599 129.38314661 -59.85836535 129.38397453 -61.74431229 129.38629532 C-64.373355 129.38882097 -67.00231141 129.38498286 -69.63134766 129.37939453 C-70.41785202 129.38141876 -71.20435638 129.38344299 -72.01469421 129.38552856 C-77.38573582 129.36426418 -77.38573582 129.36426418 -78.5 128.25 C-80.37321948 128.08946185 -80.37321948 128.08946185 -82.5 128.125 C-83.221875 128.12242187 -83.94375 128.11984375 -84.6875 128.1171875 C-86.52089415 128.05304724 -86.52089415 128.05304724 -87.5 129.25 C-89.00229207 129.36395949 -90.50985023 129.40955778 -92.01635742 129.42700195 C-93.45872017 129.44625481 -93.45872017 129.44625481 -94.93022156 129.46589661 C-96.50196892 129.47697701 -96.50196892 129.47697701 -98.10546875 129.48828125 C-99.17742996 129.496353 -100.24939117 129.50442474 -101.35383606 129.51274109 C-103.62951022 129.5266036 -105.90520536 129.537316 -108.1809082 129.54516602 C-111.65551526 129.56234189 -115.12916206 129.60620524 -118.60351562 129.65039062 C-120.81249299 129.66052029 -123.02147846 129.66903553 -125.23046875 129.67578125 C-126.78703438 129.70204338 -126.78703438 129.70204338 -128.37504578 129.72883606 C-135.52115003 129.70744484 -138.93248922 128.63955894 -144.14453125 123.6875 C-148.57459794 118.23511022 -148.65095492 114.12155488 -148.66113281 107.27197266 C-148.66609772 106.47147995 -148.67106262 105.67098724 -148.67617798 104.84623718 C-148.69076449 102.20217016 -148.69759534 99.55816312 -148.703125 96.9140625 C-148.70887884 95.07327269 -148.71463654 93.2324829 -148.72039795 91.39169312 C-148.73089759 87.53326133 -148.73674721 83.67485031 -148.74023438 79.81640625 C-148.74572041 74.87785291 -148.76975516 69.93957509 -148.79820633 65.00110817 C-148.81684915 61.19893597 -148.82203916 57.39682998 -148.82357025 53.59461594 C-148.82659301 51.77418891 -148.83460882 49.95376295 -148.84775543 48.13338089 C-148.86485226 45.58431382 -148.86292707 43.0359179 -148.85644531 40.48681641 C-148.8656601 39.73856094 -148.87487488 38.99030548 -148.8843689 38.21937561 C-148.84018087 32.65859585 -147.60085217 28.57985501 -143.8515625 24.421875 C-143.28179687 23.95265625 -142.71203125 23.4834375 -142.125 23 C-141.56039062 22.52046875 -140.99578125 22.0409375 -140.4140625 21.546875 C-136.45454172 18.86409765 -132.89727964 17.99995522 -128.15324402 18.00949097 C-127.09460144 18.00674164 -126.03595886 18.00399231 -124.94523621 18.00115967 C-123.79437027 18.00835022 -122.64350433 18.01554077 -121.45776367 18.02294922 C-119.62787399 18.02251114 -119.62787399 18.02251114 -117.76101685 18.02206421 C-114.42454488 18.02321718 -111.08832171 18.03323397 -107.75189376 18.04721212 C-104.26187485 18.05973139 -100.77185247 18.06089092 -97.28181458 18.06326294 C-90.67687134 18.0694742 -84.07199446 18.08588021 -77.46708041 18.10596192 C-69.94595609 18.12833195 -62.42482857 18.13931712 -54.90367925 18.14935279 C-39.43574776 18.17024676 -23.96788245 18.20541583 -8.5 18.25 C-8.23445312 17.11820313 -7.96890625 15.98640625 -7.6953125 14.8203125 C-7.3389156 13.33845168 -6.98212424 11.8566857 -6.625 10.375 C-6.45097656 9.62863281 -6.27695312 8.88226563 -6.09765625 8.11328125 C-4.22697368 0.42269737 -4.22697368 0.42269737 0 0 Z " fill="#35B2A0" transform="translate(312.5,149.75)"/>
<path d="M0 0 C2.5 0.25 2.5 0.25 4.5 2.25 C4.83518118 3.92590588 5.09552495 5.61723342 5.3125 7.3125 C6.68049443 15.35209802 9.9348928 21.86571245 16.4140625 26.97265625 C22.47353435 30.68323171 29.67900824 32.43106886 36.5 34.25 C36.6875 37.125 36.6875 37.125 36.5 40.25 C33.33433427 42.36044382 30.98802585 43.00552077 27.3125 43.875 C26.22582031 44.13539063 25.13914062 44.39578125 24.01953125 44.6640625 C23.18808594 44.85742188 22.35664063 45.05078125 21.5 45.25 C21.49857498 46.12172852 21.49714996 46.99345703 21.49568176 47.89160156 C21.47780891 56.13041598 21.4360688 64.36869615 21.36790943 72.60725403 C21.33370376 76.84224447 21.30853953 81.07687663 21.30444336 85.31201172 C21.30014649 89.40371424 21.27157023 93.49460945 21.22656822 97.58605957 C21.21363728 99.14240811 21.20926988 100.69885349 21.21384621 102.25524902 C21.2495941 118.1129334 21.2495941 118.1129334 15.5 124.25 C10.31994422 129.0600518 6.20017289 129.39705772 -0.62744141 129.37939453 C-1.86926933 129.38202301 -1.86926933 129.38202301 -3.13618469 129.38470459 C-5.87466523 129.38910869 -8.6130813 129.38619071 -11.3515625 129.3828125 C-13.25060031 129.38348582 -15.14963803 129.38445609 -17.04867554 129.38571167 C-21.02822694 129.38718658 -25.00775589 129.38504022 -28.98730469 129.38037109 C-34.10003247 129.37466618 -39.21270786 129.37795894 -44.32543373 129.38394356 C-48.24578246 129.38754812 -52.16611865 129.3864112 -56.08646774 129.38381577 C-57.97241599 129.38314661 -59.85836535 129.38397453 -61.74431229 129.38629532 C-64.373355 129.38882097 -67.00231141 129.38498286 -69.63134766 129.37939453 C-70.41785202 129.38141876 -71.20435638 129.38344299 -72.01469421 129.38552856 C-77.38573582 129.36426418 -77.38573582 129.36426418 -78.5 128.25 C-80.37321948 128.08946185 -80.37321948 128.08946185 -82.5 128.125 C-83.221875 128.12242187 -83.94375 128.11984375 -84.6875 128.1171875 C-86.52089415 128.05304724 -86.52089415 128.05304724 -87.5 129.25 C-89.00229207 129.36395949 -90.50985023 129.40955778 -92.01635742 129.42700195 C-93.45872017 129.44625481 -93.45872017 129.44625481 -94.93022156 129.46589661 C-96.50196892 129.47697701 -96.50196892 129.47697701 -98.10546875 129.48828125 C-99.17742996 129.496353 -100.24939117 129.50442474 -101.35383606 129.51274109 C-103.62951022 129.5266036 -105.90520536 129.537316 -108.1809082 129.54516602 C-111.65551526 129.56234189 -115.12916206 129.60620524 -118.60351562 129.65039062 C-120.81249299 129.66052029 -123.02147846 129.66903553 -125.23046875 129.67578125 C-126.78703438 129.70204338 -126.78703438 129.70204338 -128.37504578 129.72883606 C-135.52115003 129.70744484 -138.93248922 128.63955894 -144.14453125 123.6875 C-148.57459794 118.23511022 -148.65095492 114.12155488 -148.66113281 107.27197266 C-148.66609772 106.47147995 -148.67106262 105.67098724 -148.67617798 104.84623718 C-148.69076449 102.20217016 -148.69759534 99.55816312 -148.703125 96.9140625 C-148.70887884 95.07327269 -148.71463654 93.2324829 -148.72039795 91.39169312 C-148.73089759 87.53326133 -148.73674721 83.67485031 -148.74023438 79.81640625 C-148.74572041 74.87785291 -148.76975516 69.93957509 -148.79820633 65.00110817 C-148.81684915 61.19893597 -148.82203916 57.39682998 -148.82357025 53.59461594 C-148.82659301 51.77418891 -148.83460882 49.95376295 -148.84775543 48.13338089 C-148.86485226 45.58431382 -148.86292707 43.0359179 -148.85644531 40.48681641 C-148.8656601 39.73856094 -148.87487488 38.99030548 -148.8843689 38.21937561 C-148.84018087 32.65859585 -147.60085217 28.57985501 -143.8515625 24.421875 C-143.28179687 23.95265625 -142.71203125 23.4834375 -142.125 23 C-141.56039062 22.52046875 -140.99578125 22.0409375 -140.4140625 21.546875 C-136.45454172 18.86409765 -132.89727964 17.99995522 -128.15324402 18.00949097 C-127.09460144 18.00674164 -126.03595886 18.00399231 -124.94523621 18.00115967 C-123.79437027 18.00835022 -122.64350433 18.01554077 -121.45776367 18.02294922 C-119.62787399 18.02251114 -119.62787399 18.02251114 -117.76101685 18.02206421 C-114.42454488 18.02321718 -111.08832171 18.03323397 -107.75189376 18.04721212 C-104.26187485 18.05973139 -100.77185247 18.06089092 -97.28181458 18.06326294 C-90.67687134 18.0694742 -84.07199446 18.08588021 -77.46708041 18.10596192 C-69.94595609 18.12833195 -62.42482857 18.13931712 -54.90367925 18.14935279 C-39.43574776 18.17024676 -23.96788245 18.20541583 -8.5 18.25 C-8.23445312 17.11820313 -7.96890625 15.98640625 -7.6953125 14.8203125 C-7.3389156 13.33845168 -6.98212424 11.8566857 -6.625 10.375 C-6.45097656 9.62863281 -6.27695312 8.88226563 -6.09765625 8.11328125 C-4.22697368 0.42269737 -4.22697368 0.42269737 0 0 Z M-141.34875488 29.99563599 C-143.06203624 33.35057733 -142.93409078 36.63737026 -142.91992188 40.31982422 C-142.92839142 41.1300705 -142.93686096 41.94031677 -142.94558716 42.77511597 C-142.96897302 45.45179981 -142.96997887 48.12790925 -142.96875 50.8046875 C-142.97585124 52.66789988 -142.98355019 54.53111007 -142.99182129 56.39431763 C-143.00527018 60.29988685 -143.00683331 64.20525394 -143.00097656 68.11083984 C-142.99508373 73.11019344 -143.02565265 78.1085748 -143.06609344 83.1077404 C-143.09197431 86.95628057 -143.09484744 90.80458687 -143.09120178 94.65320206 C-143.09289305 96.49596727 -143.1025362 98.33874327 -143.12034607 100.18142319 C-143.14254138 102.76206765 -143.13283189 105.34074761 -143.11523438 107.92138672 C-143.12849762 108.67899292 -143.14176086 109.43659912 -143.15542603 110.21716309 C-143.06402204 116.00090852 -141.47091025 118.34753918 -137.5 122.25 C-135.10417654 123.44791173 -133.63222462 123.3706744 -130.95849609 123.36352539 C-129.54725967 123.36341209 -129.54725967 123.36341209 -128.10751343 123.36329651 C-126.58089584 123.35555458 -126.58089584 123.35555458 -125.0234375 123.34765625 C-123.98305328 123.3462413 -122.94266907 123.34482635 -121.87075806 123.34336853 C-118.53880979 123.33775866 -115.20692805 123.32520447 -111.875 123.3125 C-109.61979264 123.30748627 -107.36458422 123.30292314 -105.109375 123.29882812 C-99.57289386 123.28778603 -94.03645168 123.27103827 -88.5 123.25 C-89.49 122.59 -90.48 121.93 -91.5 121.25 C-90.48421875 120.89808594 -89.4684375 120.54617188 -88.421875 120.18359375 C-79.479506 117.00452056 -71.52375776 113.38642069 -63.5 108.25 C-63.99628906 107.79753906 -64.49257812 107.34507812 -65.00390625 106.87890625 C-66.5 105.25 -66.5 105.25 -66.4375 103.1875 C-65.23944098 100.71151135 -64.01570636 100.22382182 -61.5 99.25 C-62.16 98.92 -62.82 98.59 -63.5 98.25 C-62.76394531 97.87488281 -62.02789062 97.49976563 -61.26953125 97.11328125 C-55.93798228 94.31721132 -51.424431 91.85105704 -47.5 87.25 C-52.945 86.755 -52.945 86.755 -58.5 86.25 C-58.995 84.27 -58.995 84.27 -59.5 82.25 C-59.17 81.92 -58.84 81.59 -58.5 81.25 C-56.60798368 81.25 -54.71593748 81.25213533 -52.82397461 81.26635742 C-43.82159052 81.2033456 -43.82159052 81.2033456 -36.4375 76.4375 C-35.06340932 74.75686071 -33.75319049 73.02262156 -32.5 71.25 C-31.72527344 70.23035156 -30.95054687 69.21070313 -30.15234375 68.16015625 C-25.95935844 62.91606637 -25.95935844 62.91606637 -24.578125 56.64453125 C-25.62884591 53.91532821 -26.87364497 52.3113008 -28.875 50.1875 C-30.09042511 48.88156451 -31.29889472 47.56911781 -32.5 46.25 C-33.04914063 45.67378906 -33.59828125 45.09757812 -34.1640625 44.50390625 C-36.14178261 41.16722642 -36.17920116 38.09958613 -36.5 34.25 C-35.42621094 34.01925781 -34.35242188 33.78851563 -33.24609375 33.55078125 C-22.52356389 31.23271888 -22.52356389 31.23271888 -13.5 25.25 C-13.5 24.92 -13.5 24.59 -13.5 24.25 C-29.04236811 24.1565006 -44.58471514 24.08599336 -60.12729836 24.04275131 C-67.34423863 24.0221383 -74.56100402 23.99404211 -81.77783203 23.94824219 C-88.0690607 23.90833545 -94.36016269 23.88255801 -100.65151441 23.87364602 C-103.9818931 23.86843762 -107.31182554 23.85411622 -110.64210892 23.82707977 C-114.3626994 23.79807398 -118.08253743 23.79404301 -121.80322266 23.79589844 C-122.90373962 23.78151733 -124.00425659 23.76713623 -125.13812256 23.75231934 C-132.32604856 23.79114647 -136.02766394 24.97134211 -141.34875488 29.99563599 Z " fill="#229189" transform="translate(312.5,149.75)"/>
<path d="M0 0 C0.33 0 0.66 0 1 0 C1.8434544 2.69905409 2.27578385 4.2421615 2 7 C-1.84777148 13.7751458 -8.82440953 18.56580023 -16.26953125 20.62890625 C-16.84058594 20.75136719 -17.41164063 20.87382812 -18 21 C-17.21496094 21.35191406 -16.42992187 21.70382813 -15.62109375 22.06640625 C-4.38576825 27.34631995 1.03728595 32.63378394 6 44 C7.95278797 41.17090828 7.95278797 41.17090828 9.2265625 38.73046875 C14.29624264 29.51158113 20.62634021 25.35205633 30 21 C29.36191406 20.78085938 28.72382813 20.56171875 28.06640625 20.3359375 C25.55695588 19.3728723 23.28375825 18.42196269 21 17 C19.9375 13.75 19.9375 13.75 20 11 C23.6376967 11.63692524 26.92485673 12.62763185 30.375 13.9375 C34.55112005 15.49153656 38.69605208 16.85228055 43 18 C43.1875 20.875 43.1875 20.875 43 24 C39.83433427 26.11044382 37.48802585 26.75552077 33.8125 27.625 C32.72582031 27.88539063 31.63914062 28.14578125 30.51953125 28.4140625 C29.68808594 28.60742188 28.85664063 28.80078125 28 29 C27.99857498 29.87172852 27.99714996 30.74345703 27.99568176 31.64160156 C27.97780891 39.88041598 27.9360688 48.11869615 27.86790943 56.35725403 C27.83370376 60.59224447 27.80853953 64.82687663 27.80444336 69.06201172 C27.80014649 73.15371424 27.77157023 77.24460945 27.72656822 81.33605957 C27.71363728 82.89240811 27.70926988 84.44885349 27.71384621 86.00524902 C27.7495941 101.8629334 27.7495941 101.8629334 22 108 C16.81200144 112.81742723 12.69384805 113.14487823 5.85668945 113.11352539 C4.61245209 113.11374443 4.61245209 113.11374443 3.34307861 113.1139679 C0.59978628 113.11327092 -2.14343827 113.10548853 -4.88671875 113.09765625 C-6.78815168 113.09579131 -8.68958509 113.09436776 -10.59101868 113.09336853 C-15.59694748 113.08954936 -20.6028473 113.07972416 -25.60876465 113.06866455 C-30.71638598 113.05843756 -35.824012 113.05386815 -40.93164062 113.04882812 C-50.95443982 113.03810138 -60.9772175 113.02103212 -71 113 C-71.5625 111.0625 -71.5625 111.0625 -72 109 C-70.28591611 107.28591611 -68.11053279 107.87020278 -65.82408142 107.85655212 C-65.08283524 107.85708084 -64.34158905 107.85760956 -63.57788086 107.8581543 C-62.80054596 107.85467987 -62.02321106 107.85120544 -61.22232056 107.84762573 C-59.52752847 107.84025385 -57.83272663 107.83491614 -56.13792229 107.83133507 C-53.45137041 107.82418288 -50.76500261 107.80852319 -48.07850647 107.78999329 C-40.43753681 107.73748366 -32.79666353 107.68959648 -25.15551758 107.67407227 C-20.48574006 107.66396157 -15.81641883 107.63455155 -11.14682198 107.59275246 C-9.36996483 107.58047355 -7.59304311 107.5753155 -5.81614494 107.57755089 C-3.31956679 107.57991736 -0.82428336 107.55763444 1.67211914 107.5300293 C2.39919571 107.53663071 3.12627228 107.54323212 3.87538147 107.55003357 C9.14545673 107.45495964 13.73453944 106.21868535 18 103 C20.18455995 99.4724607 20.24306535 96.7108592 20.22705078 92.57910156 C20.22689972 91.27805481 20.22674866 89.97700806 20.22659302 88.63653564 C20.21638046 87.22123053 20.20594848 85.80592699 20.1953125 84.390625 C20.19158071 82.93902786 20.18873452 81.4874282 20.18673706 80.03582764 C20.17911364 76.22175093 20.15947635 72.40782738 20.1373291 68.59381104 C20.11684278 64.69928051 20.10772939 60.80472516 20.09765625 56.91015625 C20.07622915 49.2733678 20.04210892 41.63670539 20 34 C17.35920204 37.22079569 15.35864784 39.97263215 13.875 43.875 C13.38193359 45.16857422 13.38193359 45.16857422 12.87890625 46.48828125 C11.78003901 49.62859963 10.88667525 52.79432796 10 56 C9 57 9 57 6.5625 57.1875 C4 57 4 57 2 55 C1.50688654 53.30688212 1.07790697 51.59470678 0.6875 49.875 C-1.55028006 41.35807588 -5.57438694 34.91446175 -13 30 C-18.06584562 27.48742195 -23.53808544 26.34152287 -29 25 C-30 24 -30 24 -30.0625 20.9375 C-30.041875 19.968125 -30.02125 18.99875 -30 18 C-28.74703125 17.60167969 -27.4940625 17.20335937 -26.203125 16.79296875 C-24.55195317 16.25821424 -22.90091862 15.72303572 -21.25 15.1875 C-20.425 14.92646484 -19.6 14.66542969 -18.75 14.39648438 C-17.95078125 14.13544922 -17.1515625 13.87441406 -16.328125 13.60546875 C-15.5949707 13.36981201 -14.86181641 13.13415527 -14.10644531 12.89135742 C-11.53751948 11.90397534 -11.53751948 11.90397534 -8 9 C-46.94 8.67 -85.88 8.34 -126 8 C-125.67 7.01 -125.34 6.02 -125 5 C-117.41248494 3.36580919 -110.25171478 2.72872475 -102.50170898 2.82055664 C-101.41091537 2.82508347 -100.32012177 2.82961029 -99.1962738 2.83427429 C-96.84954328 2.84515906 -94.50283024 2.86061041 -92.15615654 2.88023567 C-88.44556075 2.91056935 -84.73512382 2.92725336 -81.02442932 2.94029236 C-71.82123132 2.97489387 -62.61815052 3.02726273 -53.4151001 3.0894165 C-45.61201886 3.14204164 -37.80904388 3.18315697 -30.00581551 3.20675468 C-27.54290681 3.21734753 -25.08001624 3.2337736 -22.61718559 3.25605965 C-19.18928427 3.28706391 -15.76175963 3.29999058 -12.33374023 3.30883789 C-11.31092957 3.32276581 -10.2881189 3.33669373 -9.23431396 3.3510437 C-8.30507614 3.34981003 -7.37583832 3.34857635 -6.41844177 3.3473053 C-5.60864585 3.35266831 -4.79884993 3.35803133 -3.96451473 3.36355686 C-2.99207994 3.18359622 -2.99207994 3.18359622 -2 3 C-1.34 2.01 -0.68 1.02 0 0 Z " fill="#13373E" transform="translate(306,166)"/>
<path d="M0 0 C2.5 0.25 2.5 0.25 4.5 2.25 C4.83518118 3.92590588 5.09552495 5.61723342 5.3125 7.3125 C6.62950625 15.22490763 10.26037981 21.23413978 15.5 27.25 C14.84 27.25 14.18 27.25 13.5 27.25 C13.83 29.23 14.16 31.21 14.5 33.25 C15.12648438 33.44335938 15.75296875 33.63671875 16.3984375 33.8359375 C17.21570313 34.09632813 18.03296875 34.35671875 18.875 34.625 C19.68710937 34.88023437 20.49921875 35.13546875 21.3359375 35.3984375 C23.5 36.25 23.5 36.25 25.5 38.25 C24.70335937 38.55292969 23.90671875 38.85585937 23.0859375 39.16796875 C12.5065694 43.35080893 7.62329956 47.10245631 2.796875 57.5078125 C1.5 60.25 1.5 60.25 -0.5 63.25 C-0.68433594 62.64414063 -0.86867188 62.03828125 -1.05859375 61.4140625 C-4.00507799 52.90199693 -8.65466297 45.83844535 -16.75390625 41.51171875 C-19.64342732 40.30064439 -22.51819399 39.20861784 -25.5 38.25 C-24.12438176 35.49876351 -22.7461281 35.48884775 -19.875 34.5 C-13.88546806 32.19171333 -9.23268102 29.28219179 -6 23.625 C-5.46637932 21.09030177 -5.60728583 19.66032827 -6.5 17.25 C-6.90203361 17.73783683 -7.30406721 18.22567366 -7.71828365 18.72829342 C-9.97589907 20.65645008 -11.06972476 20.61693056 -14.00746155 20.5973053 C-15.39292679 20.59915581 -15.39292679 20.59915581 -16.80638123 20.6010437 C-17.81781693 20.58711578 -18.82925262 20.57318787 -19.87133789 20.55883789 C-20.93835938 20.55606339 -22.00538086 20.55328888 -23.10473633 20.5504303 C-26.64424843 20.53811216 -30.18327555 20.50500856 -33.72265625 20.47265625 C-36.18305328 20.46198057 -38.64345783 20.45292376 -41.10386658 20.44541931 C-47.59551681 20.42258989 -54.0869543 20.38354883 -60.57849121 20.3394165 C-70.94422227 20.26938422 -81.30993845 20.21383469 -91.67584038 20.17706108 C-95.29077206 20.16041814 -98.90544119 20.13084466 -102.52027893 20.10035706 C-104.75448364 20.08988746 -106.98869081 20.07992752 -109.22290039 20.07055664 C-110.22016647 20.05865295 -111.21743256 20.04674927 -112.24491882 20.03448486 C-120.69550668 20.02027651 -129.15662543 20.08786471 -135.5 26.25 C-136.4075 26.95125 -137.315 27.6525 -138.25 28.375 C-140.56799605 30.05197641 -140.56799605 30.05197641 -141.5 32.25 C-141.61388905 34.87787906 -141.66782704 37.47987405 -141.67700195 40.10864258 C-141.68357315 40.92020309 -141.69014435 41.73176361 -141.69691467 42.56791687 C-141.71666431 45.26012255 -141.72831387 47.95227241 -141.73828125 50.64453125 C-141.74235678 51.56319159 -141.7464323 52.48185192 -141.75063133 53.42835045 C-141.77149905 58.29052888 -141.7857978 63.15267903 -141.79516602 68.01489258 C-141.80623273 73.03887726 -141.84063359 78.0624193 -141.88033772 83.08624744 C-141.90647399 86.94757413 -141.91485518 90.80879488 -141.91844749 94.67020226 C-141.9233211 96.52217283 -141.93495707 98.37413843 -141.95348549 100.22602272 C-141.97781399 102.8187639 -141.97692368 105.41035363 -141.9699707 108.00317383 C-141.98278076 108.7675174 -141.99559082 109.53186096 -142.00878906 110.31936646 C-141.96053549 115.25862154 -141.02618736 117.78613765 -137.5 121.25 C-132.87105046 124.08032417 -127.43197729 123.60062505 -122.16796875 123.6640625 C-121.17622147 123.68342865 -120.18447418 123.7027948 -119.16267395 123.7227478 C-116.0043693 123.78238453 -112.8460279 123.82886555 -109.6875 123.875 C-107.54230208 123.9131944 -105.39711925 123.95224698 -103.25195312 123.9921875 C-98.00143638 124.08807292 -92.75082824 124.17316678 -87.5 124.25 C-86.9375 126.1875 -86.9375 126.1875 -86.5 128.25 C-88.1000341 129.8500341 -89.80004418 129.40133878 -92.01635742 129.42700195 C-93.45872017 129.44625481 -93.45872017 129.44625481 -94.93022156 129.46589661 C-96.50196892 129.47697701 -96.50196892 129.47697701 -98.10546875 129.48828125 C-99.17742996 129.496353 -100.24939117 129.50442474 -101.35383606 129.51274109 C-103.62951022 129.5266036 -105.90520536 129.537316 -108.1809082 129.54516602 C-111.65551526 129.56234189 -115.12916206 129.60620524 -118.60351562 129.65039062 C-120.81249299 129.66052029 -123.02147846 129.66903553 -125.23046875 129.67578125 C-126.78703438 129.70204338 -126.78703438 129.70204338 -128.37504578 129.72883606 C-135.52115003 129.70744484 -138.93248922 128.63955894 -144.14453125 123.6875 C-148.57459794 118.23511022 -148.65095492 114.12155488 -148.66113281 107.27197266 C-148.66609772 106.47147995 -148.67106262 105.67098724 -148.67617798 104.84623718 C-148.69076449 102.20217016 -148.69759534 99.55816312 -148.703125 96.9140625 C-148.70887884 95.07327269 -148.71463654 93.2324829 -148.72039795 91.39169312 C-148.73089759 87.53326133 -148.73674721 83.67485031 -148.74023438 79.81640625 C-148.74572041 74.87785291 -148.76975516 69.93957509 -148.79820633 65.00110817 C-148.81684915 61.19893597 -148.82203916 57.39682998 -148.82357025 53.59461594 C-148.82659301 51.77418891 -148.83460882 49.95376295 -148.84775543 48.13338089 C-148.86485226 45.58431382 -148.86292707 43.0359179 -148.85644531 40.48681641 C-148.8656601 39.73856094 -148.87487488 38.99030548 -148.8843689 38.21937561 C-148.84018087 32.65859585 -147.60085217 28.57985501 -143.8515625 24.421875 C-143.28179687 23.95265625 -142.71203125 23.4834375 -142.125 23 C-141.56039062 22.52046875 -140.99578125 22.0409375 -140.4140625 21.546875 C-136.45454172 18.86409765 -132.89727964 17.99995522 -128.15324402 18.00949097 C-127.09460144 18.00674164 -126.03595886 18.00399231 -124.94523621 18.00115967 C-123.79437027 18.00835022 -122.64350433 18.01554077 -121.45776367 18.02294922 C-119.62787399 18.02251114 -119.62787399 18.02251114 -117.76101685 18.02206421 C-114.42454488 18.02321718 -111.08832171 18.03323397 -107.75189376 18.04721212 C-104.26187485 18.05973139 -100.77185247 18.06089092 -97.28181458 18.06326294 C-90.67687134 18.0694742 -84.07199446 18.08588021 -77.46708041 18.10596192 C-69.94595609 18.12833195 -62.42482857 18.13931712 -54.90367925 18.14935279 C-39.43574776 18.17024676 -23.96788245 18.20541583 -8.5 18.25 C-8.23445312 17.11820313 -7.96890625 15.98640625 -7.6953125 14.8203125 C-7.3389156 13.33845168 -6.98212424 11.8566857 -6.625 10.375 C-6.45097656 9.62863281 -6.27695312 8.88226563 -6.09765625 8.11328125 C-4.22697368 0.42269737 -4.22697368 0.42269737 0 0 Z " fill="#14393F" transform="translate(312.5,149.75)"/>
<path d="M0 0 C4.70588235 0.70588235 4.70588235 0.70588235 6 2 C6.10112813 4.93366968 6.1396904 7.84330173 6.1328125 10.77734375 C6.13424759 12.099869 6.13424759 12.099869 6.13571167 13.44911194 C6.13639359 15.31788199 6.13453851 17.18665439 6.13037109 19.05541992 C6.12502932 21.92176628 6.13031242 24.78795547 6.13671875 27.65429688 C6.13605785 29.46614618 6.13477643 31.27799539 6.1328125 33.08984375 C6.13483673 33.9513353 6.13686096 34.81282684 6.13894653 35.70042419 C6.11495439 41.77009122 6.11495439 41.77009122 5 44 C0.25 44.125 0.25 44.125 -2 43 C-2.99 43.495 -2.99 43.495 -4 44 C-6.42578125 44.30859375 -6.42578125 44.30859375 -9.3125 44.4375 C-10.72982422 44.52837891 -10.72982422 44.52837891 -12.17578125 44.62109375 C-15.48898833 43.89246315 -17.02579766 42.60385787 -19.04272461 39.88745117 C-20.83962316 36.34452265 -20.72095212 32.83635462 -20.625 28.9375 C-20.64433594 28.14794922 -20.66367187 27.35839844 -20.68359375 26.54492188 C-20.64720063 22.20322298 -20.39786662 20.49379239 -17.5859375 17.00390625 C-13.50259089 13.83962103 -11.17313268 13.73242417 -6 14 C-3.7734375 15.01171875 -3.7734375 15.01171875 -2 16 C-1.90912109 14.39318359 -1.90912109 14.39318359 -1.81640625 12.75390625 C-1.73201463 11.35675609 -1.64736594 9.95962143 -1.5625 8.5625 C-1.52318359 7.85544922 -1.48386719 7.14839844 -1.44335938 6.41992188 C-1.11328125 1.11328125 -1.11328125 1.11328125 0 0 Z " fill="#1B3C44" transform="translate(378,307)"/>
<path d="M0 0 C4.70588235 0.70588235 4.70588235 0.70588235 6 2 C6.11353016 4.93365746 6.16418708 7.84288462 6.16796875 10.77734375 C6.17129715 11.65902725 6.17462555 12.54071075 6.17805481 13.44911194 C6.18312783 15.31787594 6.18546302 17.18664904 6.18530273 19.05541992 C6.18748808 21.92186344 6.20563655 24.7879216 6.22460938 27.65429688 C6.22754339 29.46614451 6.22952813 31.27799398 6.23046875 33.08984375 C6.23765427 33.9513353 6.24483978 34.81282684 6.25224304 35.70042419 C6.2288216 41.7711784 6.2288216 41.7711784 4 44 C1.99363529 43.70740515 -0.00714063 43.37366113 -2 43 C-2.99 43.495 -2.99 43.495 -4 44 C-6.42578125 44.30859375 -6.42578125 44.30859375 -9.3125 44.4375 C-10.72982422 44.52837891 -10.72982422 44.52837891 -12.17578125 44.62109375 C-15.48898833 43.89246315 -17.02579766 42.60385787 -19.04272461 39.88745117 C-20.83962316 36.34452265 -20.72095212 32.83635462 -20.625 28.9375 C-20.64433594 28.14794922 -20.66367188 27.35839844 -20.68359375 26.54492188 C-20.64720063 22.20322298 -20.39786662 20.49379239 -17.5859375 17.00390625 C-13.49357229 13.8326323 -11.18509939 13.73635088 -6 14 C-4.31677662 14.62368363 -2.64578556 15.28333262 -1 16 C-1.01160156 14.92878906 -1.02320313 13.85757812 -1.03515625 12.75390625 C-1.04453299 11.35677257 -1.05363331 9.95963701 -1.0625 8.5625 C-1.07087891 7.85544922 -1.07925781 7.14839844 -1.08789062 6.41992188 C-1.09653588 4.61306441 -1.05220011 2.80612397 -1 1 C-0.67 0.67 -0.34 0.34 0 0 Z " fill="#1A3B43" transform="translate(242,307)"/>
<path d="M0 0 C1.72645909 2.58968864 2.87109507 4.92652178 4.125 7.75 C8.87708052 17.24034685 16.41045479 21.17475862 26 25 C22.6548167 27.2301222 19.19708176 28.86682669 15.5703125 30.5859375 C10.15517595 33.56508557 7.40973132 36.44328906 4.8125 42.0625 C3.33004562 45.22689472 1.94114859 48.08827711 0 51 C-0.18433594 50.39414063 -0.36867188 49.78828125 -0.55859375 49.1640625 C-3.50507799 40.65199693 -8.15466297 33.58844535 -16.25390625 29.26171875 C-19.14342732 28.05064439 -22.01819399 26.95861784 -25 26 C-23.62438176 23.24876351 -22.2461281 23.23884775 -19.375 22.25 C-8.21907998 17.83841285 -4.71672092 10.46567255 0 0 Z " fill="#F2C273" transform="translate(312,162)"/>
<path d="M0 0 C2.33882138 0.29235267 4.67284 0.62599214 7 1 C7.66 0.67 8.32 0.34 9 0 C14.23269006 -0.40251462 17.53940485 0.19916119 22 3 C24.54400761 6.81601142 24.33116914 9.95414856 24.3125 14.375 C24.32861328 15.13039063 24.34472656 15.88578125 24.36132812 16.6640625 C24.36534942 21.26442912 23.97922898 24.2742195 21 28 C17.60750652 30.26166232 16.34798499 30.24515545 12.375 30.1875 C11.39273438 30.18105469 10.41046875 30.17460937 9.3984375 30.16796875 C7 30 7 30 6 29 C5.93941406 29.85464844 5.87882813 30.70929688 5.81640625 31.58984375 C5.69072266 33.24693359 5.69072266 33.24693359 5.5625 34.9375 C5.48128906 36.03964844 5.40007812 37.14179688 5.31640625 38.27734375 C5 41 5 41 4 42 C1.5 42.125 1.5 42.125 -1 42 C-3.09441119 39.90558881 -2.16414502 35.33334318 -2.16796875 32.44140625 C-2.17129715 31.58191879 -2.17462555 30.72243134 -2.17805481 29.8368988 C-2.1831277 28.01521339 -2.18546302 26.19351864 -2.18530273 24.37182617 C-2.18748803 21.5778071 -2.20563644 18.78418343 -2.22460938 15.99023438 C-2.2275434 14.22395969 -2.22952814 12.45768312 -2.23046875 10.69140625 C-2.23765427 9.85178848 -2.24483978 9.01217072 -2.25224304 8.14710999 C-2.22882181 2.22882181 -2.22882181 2.22882181 0 0 Z " fill="#183A42" transform="translate(133,321)"/>
<path d="M0 0 C2.33882138 0.29235267 4.67284 0.62599214 7 1 C7.66 0.67 8.32 0.34 9 0 C15.81283762 -0.68128376 15.81283762 -0.68128376 18.82421875 1.046875 C20.98828747 2.82843278 22.73804816 4.47609632 24 7 C24.17778623 9.59975932 24.27753022 12.14824807 24.3125 14.75 C24.34150391 15.45382812 24.37050781 16.15765625 24.40039062 16.8828125 C24.46264141 22.03526184 23.38258227 24.90826783 20 29 C17.37670316 30.31164842 15.36301375 30.13262846 12.4375 30.125 C11.44621094 30.12757813 10.45492187 30.13015625 9.43359375 30.1328125 C7 30 7 30 6 29 C5.93941406 29.85464844 5.87882813 30.70929688 5.81640625 31.58984375 C5.69072266 33.24693359 5.69072266 33.24693359 5.5625 34.9375 C5.48128906 36.03964844 5.40007812 37.14179688 5.31640625 38.27734375 C5 41 5 41 4 42 C1.5 42.125 1.5 42.125 -1 42 C-3.09441119 39.90558881 -2.16414502 35.33334318 -2.16796875 32.44140625 C-2.17129715 31.58191879 -2.17462555 30.72243134 -2.17805481 29.8368988 C-2.1831277 28.01521339 -2.18546302 26.19351864 -2.18530273 24.37182617 C-2.18748803 21.5778071 -2.20563644 18.78418343 -2.22460938 15.99023438 C-2.2275434 14.22395969 -2.22952814 12.45768312 -2.23046875 10.69140625 C-2.23765427 9.85178848 -2.24483978 9.01217072 -2.25224304 8.14710999 C-2.22882181 2.22882181 -2.22882181 2.22882181 0 0 Z " fill="#193A42" transform="translate(162,321)"/>
<path d="M0 0 C2.475 0.495 2.475 0.495 5 1 C5 14.86 5 28.72 5 43 C0 44 0 44 -3 43 C-3.99 43.495 -3.99 43.495 -5 44 C-7.20703125 44.2734375 -7.20703125 44.2734375 -9.8125 44.375 C-10.66457031 44.42398438 -11.51664062 44.47296875 -12.39453125 44.5234375 C-16.33813743 43.73116879 -17.66342845 42.24477957 -20 39 C-20.69005431 35.80974358 -20.65462924 32.75191307 -20.5625 29.5 C-20.57345703 28.65824219 -20.58441406 27.81648438 -20.59570312 26.94921875 C-20.5466943 22.79980501 -20.34465909 20.54694368 -18.08984375 16.96875 C-14.77546407 13.84641849 -12.5835476 13.86391449 -8.0703125 13.76953125 C-5.68656167 14.03489219 -4.07297908 14.8240724 -2 16 C-2.02320313 15.01257813 -2.04640625 14.02515625 -2.0703125 13.0078125 C-2.08835937 11.72648437 -2.10640625 10.44515625 -2.125 9.125 C-2.14820313 7.84882813 -2.17140625 6.57265625 -2.1953125 5.2578125 C-2 2 -2 2 0 0 Z " fill="#1A3B43" transform="translate(321,307)"/>
<path d="M0 0 C1.921875 0.12890625 1.921875 0.12890625 4 1 C5.265625 3.21484375 5.265625 3.21484375 6.25 5.9375 C6.58515625 6.83339844 6.9203125 7.72929687 7.265625 8.65234375 C8 11 8 11 8 13 C8.78375 13.309375 9.5675 13.61875 10.375 13.9375 C13 15 13 15 15 16 C17.0307477 16.15411106 19.06606421 16.24982453 21.1015625 16.31640625 C22.31328125 16.35830078 23.525 16.40019531 24.7734375 16.44335938 C26.04445312 16.48267578 27.31546875 16.52199219 28.625 16.5625 C29.90375 16.60568359 31.1825 16.64886719 32.5 16.69335938 C35.66655348 16.79969886 38.83318753 16.90172833 42 17 C42.495 19.475 42.495 19.475 43 22 C40.29672652 23.35163674 38.13299446 23.14450088 35.109375 23.17578125 C33.92472656 23.19962891 32.74007812 23.22347656 31.51953125 23.24804688 C29.02230492 23.29074556 26.52485775 23.32214173 24.02734375 23.34179688 C15.12710254 23.3720807 15.12710254 23.3720807 8 28 C6.24009436 30.97805561 6.24009436 30.97805561 5.125 34.25 C4.71507812 35.32765625 4.30515625 36.4053125 3.8828125 37.515625 C3.59148437 38.33546875 3.30015625 39.1553125 3 40 C1.171875 39.80859375 1.171875 39.80859375 -1 39 C-2.484375 36.78515625 -2.484375 36.78515625 -3.75 34.0625 C-4.39195312 32.71865234 -4.39195312 32.71865234 -5.046875 31.34765625 C-6 29 -6 29 -6 27 C-10.3039919 25.25150329 -14.64750591 23.6229639 -19 22 C-18.67 20.35 -18.34 18.7 -18 17 C-17.32453125 16.84144531 -16.6490625 16.68289062 -15.953125 16.51953125 C-10.30405506 15.06045827 -10.30405506 15.06045827 -5.5625 11.8125 C-3.61136113 8.30045004 -2.32752612 4.79293176 -1 1 C-0.67 0.67 -0.34 0.34 0 0 Z " fill="#143D42" transform="translate(203,177)"/>
<path d="M0 0 C3.24969769 -0.11638036 6.4988583 -0.18730581 9.75 -0.25 C10.67039062 -0.28351563 11.59078125 -0.31703125 12.5390625 -0.3515625 C13.42851563 -0.36445313 14.31796875 -0.37734375 15.234375 -0.390625 C16.05131836 -0.41157227 16.86826172 -0.43251953 17.70996094 -0.45410156 C20.95346769 0.18906715 22.06916279 1.34111092 24 4 C24.4699707 7.00854492 24.4699707 7.00854492 24.42578125 10.48046875 C24.41740234 11.72634766 24.40902344 12.97222656 24.40039062 14.25585938 C24.35688477 16.20202148 24.35688477 16.20202148 24.3125 18.1875 C24.30283203 19.49654297 24.29316406 20.80558594 24.28320312 22.15429688 C24.16768973 31.83231027 24.16768973 31.83231027 23 33 C18.46511628 33.23255814 18.46511628 33.23255814 16 32 C15.01 32.495 15.01 32.495 14 33 C11.87960174 33.17431846 9.75206692 33.26709071 7.625 33.3125 C5.91183594 33.36857422 5.91183594 33.36857422 4.1640625 33.42578125 C1 33 1 33 -1.3828125 31.38671875 C-3.49292765 28.27251499 -3.53431351 26.24017305 -3.5 22.5 C-3.51546875 20.81390625 -3.51546875 20.81390625 -3.53125 19.09375 C-3 16 -3 16 -1.453125 13.609375 C1.90762987 11.40454856 4.87865866 11.55972613 8.75 11.75 C9.44738281 11.76804687 10.14476563 11.78609375 10.86328125 11.8046875 C12.57611539 11.85161446 14.28823824 11.92335395 16 12 C16 10.35 16 8.7 16 7 C14.94039062 7.02320313 13.88078125 7.04640625 12.7890625 7.0703125 C11.4010487 7.08906944 10.0130273 7.10726972 8.625 7.125 C7.57699219 7.15013672 7.57699219 7.15013672 6.5078125 7.17578125 C4.67102514 7.19344267 2.83398037 7.10303261 1 7 C0.34 6.34 -0.32 5.68 -1 5 C-0.625 2.375 -0.625 2.375 0 0 Z " fill="#1C3D45" transform="translate(103,318)"/>
<path d="M0 0 C2.625 0.375 2.625 0.375 5 1 C5.33 2.65 5.66 4.3 6 6 C7.0828125 5.4740625 7.0828125 5.4740625 8.1875 4.9375 C11.3122705 3.89590983 12.88161996 4.10903428 16 5 C16.66 6.98 17.32 8.96 18 11 C17.34 11.66 16.68 12.32 16 13 C15.72095371 16.11038944 15.72095371 16.11038944 15.8046875 19.7578125 C15.80893234 20.75238968 15.80893234 20.75238968 15.81326294 21.76705933 C15.82446565 23.88655583 15.84956949 26.00563104 15.875 28.125 C15.88502972 29.56119182 15.89415559 30.99739025 15.90234375 32.43359375 C15.924405 35.95586628 15.95893506 39.47789203 16 43 C11.92479862 43.93619491 9.11598766 43.68599794 5 43 C4.0925 43.185625 3.185 43.37125 2.25 43.5625 C1.5075 43.706875 0.765 43.85125 0 44 C-2.66070205 41.33929795 -2.24916545 39.34520322 -2.27789307 35.72607422 C-2.2738446 34.86771973 -2.26979614 34.00936523 -2.265625 33.125 C-2.26753845 32.24473145 -2.2694519 31.36446289 -2.27142334 30.45751953 C-2.27278552 28.59472366 -2.26908682 26.73191831 -2.26074219 24.86914062 C-2.25004307 22.01150264 -2.26063632 19.15449334 -2.2734375 16.296875 C-2.27211591 14.48958194 -2.26955353 12.68228927 -2.265625 10.875 C-2.26967346 10.01664551 -2.27372192 9.15829102 -2.27789307 8.27392578 C-2.22991745 2.22991745 -2.22991745 2.22991745 0 0 Z " fill="#D8E0E3" transform="translate(281,307)"/>
<path d="M0 0 C0.75990234 -0.02449219 1.51980469 -0.04898437 2.30273438 -0.07421875 C5.88018695 -0.0928675 8.37550528 0.24405921 11.703125 1.640625 C14.99924677 6.18252507 14.28748594 11.05194189 14.125 16.5 C14.11919922 17.60988281 14.11339844 18.71976562 14.10742188 19.86328125 C13.98231679 28.08018321 13.98231679 28.08018321 11.6875 30.375 C9.68113529 30.08240515 7.68035937 29.74866113 5.6875 29.375 C5.0275 29.705 4.3675 30.035 3.6875 30.375 C-1.08053517 30.8366669 -5.63616891 31.19367332 -10 29.0625 C-12.11369575 24.73445632 -12.11186269 20.09196003 -11.3125 15.375 C-10.265625 13.546875 -10.265625 13.546875 -8.3125 12.375 C-5.66253674 12.1577899 -3.26173442 12.09148446 -0.625 12.1875 C0.4278418 12.20780273 0.4278418 12.20780273 1.50195312 12.22851562 C3.23079829 12.26379818 4.95924765 12.31760417 6.6875 12.375 C6.6875 10.725 6.6875 9.075 6.6875 7.375 C1.4075 7.375 -3.8725 7.375 -9.3125 7.375 C-9.6425 5.725 -9.9725 4.075 -10.3125 2.375 C-7.31790126 -0.61959874 -4.00776936 0.00669636 0 0 Z " fill="#1B3C44" transform="translate(341.3125,320.625)"/>
<path d="M0 0 C0.75925781 -0.01095703 1.51851563 -0.02191406 2.30078125 -0.03320312 C5.95056685 0.01473627 7.94415473 0.18008539 11.00390625 2.28515625 C12.75596388 4.95212649 13.00995227 6.39392085 12.9375 9.5625 C12.93621094 10.408125 12.93492187 11.25375 12.93359375 12.125 C12.38749657 15.19495174 11.86755424 16.4979927 9.5 18.5625 C6.78770497 18.85892569 4.50260268 18.94311189 1.8125 18.8125 C0.7596582 18.78542969 0.7596582 18.78542969 -0.31445312 18.7578125 C-2.04355436 18.71076213 -3.77195205 18.63901873 -5.5 18.5625 C-5.5 19.8825 -5.5 21.2025 -5.5 22.5625 C-4.44039063 22.53929687 -3.38078125 22.51609375 -2.2890625 22.4921875 C-0.9010487 22.47343056 0.4869727 22.45523028 1.875 22.4375 C2.92300781 22.41236328 2.92300781 22.41236328 3.9921875 22.38671875 C5.82897486 22.36905733 7.66601963 22.45946739 9.5 22.5625 C10.16 23.2225 10.82 23.8825 11.5 24.5625 C10.96428571 28.09821429 10.96428571 28.09821429 9.5 29.5625 C6.54611239 29.76989432 3.64454382 29.88710886 0.6875 29.9375 C-0.13298828 29.97488281 -0.95347656 30.01226562 -1.79882812 30.05078125 C-5.76354694 30.10866036 -7.81893426 30.07931487 -11.04296875 27.6328125 C-13.06744124 23.36676591 -13.08573369 19.72784168 -13 15.0625 C-13.01546875 14.22074219 -13.0309375 13.37898438 -13.046875 12.51171875 C-13.02232438 8.61430762 -12.73420467 6.04005795 -11 2.50390625 C-7.3880436 -0.30100364 -4.45288551 -0.13986143 0 0 Z " fill="#1B3B43" transform="translate(399.5,321.4375)"/>
<path d="M0 0 C0.75925781 -0.01095703 1.51851563 -0.02191406 2.30078125 -0.03320312 C5.94939384 0.01472086 7.94275179 0.17852116 11 2.28515625 C12.74918674 4.94082258 13.03853748 6.40242629 13 9.5625 C13.0103125 10.408125 13.020625 11.25375 13.03125 12.125 C12.30390047 15.46225081 11.2902878 16.60029761 8.5 18.5625 C5.046875 18.953125 5.046875 18.953125 1.25 18.8125 C-0.01328125 18.77640625 -1.2765625 18.7403125 -2.578125 18.703125 C-4.02445312 18.63351562 -4.02445312 18.63351562 -5.5 18.5625 C-5.17 19.5525 -4.84 20.5425 -4.5 21.5625 C-3.51257813 21.61148437 -2.52515625 21.66046875 -1.5078125 21.7109375 C-0.22648437 21.78570312 1.05484375 21.86046875 2.375 21.9375 C3.65117187 22.00710938 4.92734375 22.07671875 6.2421875 22.1484375 C9.5 22.5625 9.5 22.5625 11.5 24.5625 C10.96428571 28.09821429 10.96428571 28.09821429 9.5 29.5625 C6.71377886 29.74311582 3.9759733 29.84063098 1.1875 29.875 C0.41470703 29.90400391 -0.35808594 29.93300781 -1.15429688 29.96289062 C-6.89180818 30.02702446 -6.89180818 30.02702446 -9.98046875 27.66796875 C-12.98279406 23.50793445 -12.75374609 19.72841497 -12.8125 14.75 C-12.84150391 13.94240234 -12.87050781 13.13480469 -12.90039062 12.30273438 C-12.94132056 8.45846864 -12.72447054 6.02086766 -11.01171875 2.5234375 C-7.39281955 -0.30189282 -4.46946509 -0.14038218 0 0 Z " fill="#1D3D45" transform="translate(263.5,321.4375)"/>
<path d="M0 0 C1.125 3.75 1.125 3.75 0 6 C-2.32156597 6.40729228 -4.6568787 6.74438677 -7 7 C-7.33 9.64 -7.66 12.28 -8 15 C-5.36 15 -2.72 15 0 15 C0.042721 16.66611905 0.04063832 18.33382885 0 20 C-1 21 -1 21 -4.5625 21.0625 C-5.696875 21.041875 -6.83125 21.02125 -8 21 C-7.99476318 21.62567871 -7.98952637 22.25135742 -7.98413086 22.89599609 C-7.96338382 25.72232057 -7.95034714 28.54862905 -7.9375 31.375 C-7.92912109 32.35984375 -7.92074219 33.3446875 -7.91210938 34.359375 C-7.90888672 35.30039062 -7.90566406 36.24140625 -7.90234375 37.2109375 C-7.89710693 38.08024902 -7.89187012 38.94956055 -7.88647461 39.84521484 C-8 42 -8 42 -9 44 C-10.98 43.67 -12.96 43.34 -15 43 C-15 35.74 -15 28.48 -15 21 C-16.65 20.67 -18.3 20.34 -20 20 C-20 18.35 -20 16.7 -20 15 C-18.35 14.67 -16.7 14.34 -15 14 C-15.04640625 13.32453125 -15.0928125 12.6490625 -15.140625 11.953125 C-15.42780749 4.85561497 -15.42780749 4.85561497 -13.6875 1.375 C-9.32237279 -0.8583209 -4.80626028 -0.2983196 0 0 Z " fill="#173A42" transform="translate(208,307)"/>
<path d="M0 0 C2.5 0.25 2.5 0.25 4.5 2.25 C4.83518118 3.92590588 5.09552495 5.61723342 5.3125 7.3125 C6.62950625 15.22490763 10.26037981 21.23413978 15.5 27.25 C14.84 27.25 14.18 27.25 13.5 27.25 C13.83 28.9 14.16 30.55 14.5 32.25 C6.85570007 28.9307645 2.76288385 21.55885983 -0.5 14.25 C-1.49 16.56 -2.48 18.87 -3.5 21.25 C-4.16 21.25 -4.82 21.25 -5.5 21.25 C-5.995 19.27 -5.995 19.27 -6.5 17.25 C-7.08569999 17.98251338 -7.08569999 17.98251338 -7.68323231 18.72982502 C-10.09455854 20.7474951 -11.44928983 20.6074902 -14.56828308 20.57279968 C-16.13950172 20.56636444 -16.13950172 20.56636444 -17.74246216 20.55979919 C-19.46552078 20.52959435 -19.46552078 20.52959435 -21.22338867 20.4987793 C-22.4332695 20.48946381 -23.64315033 20.48014832 -24.88969421 20.47055054 C-28.20790328 20.44204354 -31.52543672 20.40011186 -34.84338927 20.35225272 C-38.31063466 20.30539954 -41.77802533 20.27564764 -45.24543762 20.24409485 C-51.81162879 20.18173821 -58.37754356 20.10396448 -64.94349891 20.02067453 C-72.41852027 19.92660196 -79.89368718 19.84968116 -87.36891592 19.77421319 C-102.74618614 19.61858332 -118.12313059 19.44137456 -133.5 19.25 C-133.5 18.92 -133.5 18.59 -133.5 18.25 C-92.25 18.25 -51 18.25 -8.5 18.25 C-7.18 12.97 -5.86 7.69 -4.5 2.25 C-2.5 0.25 -2.5 0.25 0 0 Z " fill="#375257" transform="translate(312.5,149.75)"/>
<path d="M0 0 C1.65 0.33 3.3 0.66 5 1 C5 14.86 5 28.72 5 43 C2.525 43.495 2.525 43.495 0 44 C-2.66070205 41.33929795 -2.24916545 39.34520322 -2.27789307 35.72607422 C-2.2738446 34.86771973 -2.26979614 34.00936523 -2.265625 33.125 C-2.26753845 32.24473145 -2.2694519 31.36446289 -2.27142334 30.45751953 C-2.27278552 28.59472366 -2.26908682 26.73191831 -2.26074219 24.86914062 C-2.25004307 22.01150264 -2.26063632 19.15449334 -2.2734375 16.296875 C-2.27211591 14.48958194 -2.26955353 12.68228927 -2.265625 10.875 C-2.26967346 10.01664551 -2.27372192 9.15829102 -2.27789307 8.27392578 C-2.22991745 2.22991745 -2.22991745 2.22991745 0 0 Z " fill="#173840" transform="translate(281,307)"/>
<path d="M0 0 C1.29550781 0.04833984 2.59101563 0.09667969 3.92578125 0.14648438 C5.28906763 0.20300129 6.65234883 0.25964351 8.015625 0.31640625 C9.39451112 0.36966447 10.77341735 0.42240459 12.15234375 0.47460938 C15.52367033 0.60427578 18.89470018 0.73924279 22.265625 0.87890625 C22.760625 3.35390625 22.760625 3.35390625 23.265625 5.87890625 C20.56597809 7.2287297 18.42982434 7.00596682 15.41015625 7.01953125 C13.63995117 7.04853516 13.63995117 7.04853516 11.83398438 7.078125 C9.34976955 7.11171293 6.86529987 7.13018763 4.38085938 7.1328125 C-3.16107361 7.28848521 -7.01080371 7.96093145 -12.734375 12.87890625 C-15.52737953 13.69035701 -17.79702575 13.72430892 -20.734375 13.87890625 C-20.404375 12.55890625 -20.074375 11.23890625 -19.734375 9.87890625 C-19.734375 10.53890625 -19.734375 11.19890625 -19.734375 11.87890625 C-19.074375 11.87890625 -18.414375 11.87890625 -17.734375 11.87890625 C-17.46625 11.28078125 -17.198125 10.68265625 -16.921875 10.06640625 C-15.72450025 7.86071592 -14.68958516 6.44307438 -12.734375 4.87890625 C-11.744375 4.87890625 -10.754375 4.87890625 -9.734375 4.87890625 C-10.064375 3.55890625 -10.394375 2.23890625 -10.734375 0.87890625 C-7.09754317 -0.29007541 -3.79602962 -0.14984327 0 0 Z " fill="#0E373D" transform="translate(222.734375,193.12109375)"/>
<path d="M0 0 C2.5 0.125 2.5 0.125 3.5 1.125 C3.75342236 5.43147636 3.68522638 9.74945054 3.6875 14.0625 C3.69974609 15.28130859 3.71199219 16.50011719 3.72460938 17.75585938 C3.72654297 18.91794922 3.72847656 20.08003906 3.73046875 21.27734375 C3.73457764 22.34976318 3.73868652 23.42218262 3.74291992 24.52709961 C3.5 27.125 3.5 27.125 1.5 29.125 C-1.125 28.75 -1.125 28.75 -3.5 28.125 C-3.52886338 23.64584672 -3.54675187 19.16671709 -3.5625 14.6875 C-3.57087891 13.40810547 -3.57925781 12.12871094 -3.58789062 10.81054688 C-3.59111328 9.59560547 -3.59433594 8.38066406 -3.59765625 7.12890625 C-3.60289307 6.00299072 -3.60812988 4.8770752 -3.61352539 3.71704102 C-3.46314571 0.28353325 -3.42370175 0.17118509 0 0 Z " fill="#1C3D45" transform="translate(215.5,321.875)"/>
<path d="M0 0 C2.5 0.125 2.5 0.125 3.5 1.125 C3.58758003 3.12464982 3.60696576 5.1273611 3.59765625 7.12890625 C3.59443359 8.34384766 3.59121094 9.55878906 3.58789062 10.81054688 C3.57951172 12.08994141 3.57113281 13.36933594 3.5625 14.6875 C3.55798828 15.97076172 3.55347656 17.25402344 3.54882812 18.57617188 C3.53699545 21.75916022 3.52051068 24.94205762 3.5 28.125 C1.125 28.75 1.125 28.75 -1.5 29.125 C-3.5 27.125 -3.5 27.125 -3.74291992 24.52709961 C-3.73881104 23.45468018 -3.73470215 22.38226074 -3.73046875 21.27734375 C-3.72853516 20.11525391 -3.72660156 18.95316406 -3.72460938 17.75585938 C-3.71236328 16.53705078 -3.70011719 15.31824219 -3.6875 14.0625 C-3.68685547 12.83982422 -3.68621094 11.61714844 -3.68554688 10.35742188 C-3.63469669 0.18173483 -3.63469669 0.18173483 0 0 Z " fill="#1B3C44" transform="translate(293.5,321.875)"/>
<path d="M0 0 C0.99 0.66 1.98 1.32 3 2 C3.3984375 4.71484375 3.3984375 4.71484375 3.375 7.9375 C3.38273438 8.99839844 3.39046875 10.05929687 3.3984375 11.15234375 C3 14 3 14 1.69921875 15.88671875 C0 17 0 17 -3.5625 16.875 C-7 16 -7 16 -9 13 C-9.30078125 10.625 -9.30078125 10.625 -9.3125 8 C-9.32925781 7.13375 -9.34601563 6.2675 -9.36328125 5.375 C-9 3 -9 3 -7.66796875 1.20703125 C-5.10877425 -0.64493854 -3.06689908 -0.31946865 0 0 Z " fill="#D8DFE2" transform="translate(147,328)"/>
<path d="M0 0 C3.50939487 0.35093949 4.63335307 0.88446959 7.125 3.3125 C8.14471041 7.80372452 7.87739988 12.01837221 5.5625 16 C2.08987636 17.86987427 -0.13867122 17.29945477 -3.875 16.3125 C-5.23771133 13.58707733 -5.04423601 11.35162726 -5.0625 8.3125 C-5.07667969 7.24 -5.09085938 6.1675 -5.10546875 5.0625 C-4.77842045 1.16009311 -3.86446656 0.42005071 0 0 Z " fill="#D7DDE0" transform="translate(233.875,327.6875)"/>
<path d="M0 0 C1.6640625 1.1796875 1.6640625 1.1796875 3 3 C3.3984375 5.59375 3.3984375 5.59375 3.375 8.5 C3.38273438 9.4590625 3.39046875 10.418125 3.3984375 11.40625 C3 14 3 14 1.62890625 15.81640625 C0 17 0 17 -2.4375 17.4375 C-5 17 -5 17 -7.3125 15.625 C-9.83972762 11.69375704 -9.84416568 7.55545263 -9 3 C-6.39570046 -0.46986849 -4.23532509 -0.52941564 0 0 Z " fill="#D9DFE1" transform="translate(176,328)"/>
<path d="M0 0 C1.61358398 -0.01836914 1.61358398 -0.01836914 3.25976562 -0.03710938 C4.28650391 -0.03904297 5.31324219 -0.04097656 6.37109375 -0.04296875 C7.79119751 -0.04913208 7.79119751 -0.04913208 9.23999023 -0.05541992 C11.5625 0.1875 11.5625 0.1875 13.5625 2.1875 C13.02678571 5.72321429 13.02678571 5.72321429 11.5625 7.1875 C9.86691274 7.28682153 8.16724253 7.31830007 6.46875 7.3203125 C5.43878906 7.32160156 4.40882813 7.32289063 3.34765625 7.32421875 C1.72150391 7.31841797 1.72150391 7.31841797 0.0625 7.3125 C-1.02160156 7.31636719 -2.10570312 7.32023438 -3.22265625 7.32421875 C-4.25261719 7.32292969 -5.28257812 7.32164062 -6.34375 7.3203125 C-7.29572266 7.31918457 -8.24769531 7.31805664 -9.22851562 7.31689453 C-11.4375 7.1875 -11.4375 7.1875 -12.4375 6.1875 C-12.5625 3.6875 -12.5625 3.6875 -12.4375 1.1875 C-9.96151267 -1.28848733 -3.32889842 0.0019874 0 0 Z " fill="#0E383D" transform="translate(297.4375,229.8125)"/>
<path d="M0 0 C0.98033203 -0.00128906 1.96066406 -0.00257813 2.97070312 -0.00390625 C4.51854492 0.00189453 4.51854492 0.00189453 6.09765625 0.0078125 C7.12568359 0.00394531 8.15371094 0.00007812 9.21289062 -0.00390625 C10.68532227 -0.00197266 10.68532227 -0.00197266 12.1875 0 C13.54476196 0.00169189 13.54476196 0.00169189 14.92944336 0.00341797 C17.16015625 0.1328125 17.16015625 0.1328125 19.16015625 1.1328125 C18.28515625 6.0078125 18.28515625 6.0078125 17.16015625 7.1328125 C13.5211645 7.38437519 9.86931952 7.31803476 6.22265625 7.3203125 C5.19462891 7.33255859 4.16660156 7.34480469 3.10742188 7.35742188 C1.63499023 7.36032227 1.63499023 7.36032227 0.1328125 7.36328125 C-1.22444946 7.36944458 -1.22444946 7.36944458 -2.60913086 7.37573242 C-4.83984375 7.1328125 -4.83984375 7.1328125 -6.83984375 5.1328125 C-6.08145266 0.12743133 -4.81682178 0.0060119 0 0 Z " fill="#0E3B40" transform="translate(258.83984375,229.8671875)"/>
<path d="M0 0 C3.0625 0.25 3.0625 0.25 6.0625 2.25 C6.4609375 4.96484375 6.4609375 4.96484375 6.4375 8.1875 C6.44523437 9.24839844 6.45296875 10.30929687 6.4609375 11.40234375 C6.0625 14.25 6.0625 14.25 4.765625 16.14453125 C3.0625 17.25 3.0625 17.25 -0.5625 17 C-3.9375 16.25 -3.9375 16.25 -4.9375 15.25 C-5.06287741 13.10692104 -5.11324364 10.95921114 -5.125 8.8125 C-5.13917969 7.63816406 -5.15335937 6.46382813 -5.16796875 5.25390625 C-4.85394668 1.16097448 -4.096066 0.34860136 0 0 Z " fill="#DFE5E8" transform="translate(369.9375,327.75)"/>
<path d="M0 0 C1.02802734 -0.01224609 2.05605469 -0.02449219 3.11523438 -0.03710938 C4.58766602 -0.04000977 4.58766602 -0.04000977 6.08984375 -0.04296875 C6.99468506 -0.04707764 7.89952637 -0.05118652 8.83178711 -0.05541992 C11.0625 0.1875 11.0625 0.1875 13.0625 2.1875 C12.52678571 5.72321429 12.52678571 5.72321429 11.0625 7.1875 C7.42350825 7.43906269 3.77166327 7.37272226 0.125 7.375 C-0.90302734 7.38724609 -1.93105469 7.39949219 -2.99023438 7.41210938 C-4.46266602 7.41500977 -4.46266602 7.41500977 -5.96484375 7.41796875 C-7.32210571 7.42413208 -7.32210571 7.42413208 -8.70678711 7.43041992 C-10.9375 7.1875 -10.9375 7.1875 -12.9375 5.1875 C-11.84633835 -2.01416691 -6.07108002 0.00379205 0 0 Z " fill="#113E42" transform="translate(199.9375,229.8125)"/>
<path d="M0 0 C0.98162109 -0.00128906 1.96324219 -0.00257813 2.97460938 -0.00390625 C4.51665039 0.00189453 4.51665039 0.00189453 6.08984375 0.0078125 C7.12173828 0.00394531 8.15363281 0.00007812 9.21679688 -0.00390625 C10.19712891 -0.00261719 11.17746094 -0.00132812 12.1875 0 C13.54307007 0.00169189 13.54307007 0.00169189 14.92602539 0.00341797 C17.02734375 0.1328125 17.02734375 0.1328125 18.02734375 1.1328125 C18.15234375 3.6328125 18.15234375 3.6328125 18.02734375 6.1328125 C16.37844609 7.78171016 14.45388991 7.26279631 12.1875 7.265625 C11.20716797 7.26691406 10.22683594 7.26820313 9.21679688 7.26953125 C7.66895508 7.26373047 7.66895508 7.26373047 6.08984375 7.2578125 C4.54780273 7.26361328 4.54780273 7.26361328 2.97460938 7.26953125 C1.99298828 7.26824219 1.01136719 7.26695312 0 7.265625 C-0.90484131 7.26449707 -1.80968262 7.26336914 -2.74194336 7.26220703 C-4.97265625 7.1328125 -4.97265625 7.1328125 -6.97265625 6.1328125 C-6.97265625 4.4828125 -6.97265625 2.8328125 -6.97265625 1.1328125 C-4.4826996 -0.11216583 -2.78270714 0.00346878 0 0 Z " fill="#113E43" transform="translate(226.97265625,229.8671875)"/>
<path d="M0 0 C3.0625 0.3125 3.0625 0.3125 4.7265625 1.48828125 C6.55503975 3.98506159 6.49587353 5.74240964 6.5 8.8125 C6.51933594 9.7715625 6.53867187 10.730625 6.55859375 11.71875 C6.0625 14.3125 6.0625 14.3125 4.19921875 16.13671875 C1.58998187 17.57251455 -0.00069739 17.6989214 -2.9375 17.3125 C-4.9375 15.3125 -4.9375 15.3125 -5.203125 12.34375 C-5.19796875 11.1784375 -5.1928125 10.013125 -5.1875 8.8125 C-5.19265625 7.6471875 -5.1978125 6.481875 -5.203125 5.28125 C-4.83939876 1.21607442 -4.05590654 0.43147942 0 0 Z " fill="#DEE4E6" transform="translate(312.9375,327.6875)"/>
<path d="M0 0 C0.89460937 -0.00128906 1.78921875 -0.00257813 2.7109375 -0.00390625 C3.65195313 -0.00003906 4.59296875 0.00382813 5.5625 0.0078125 C6.97402344 0.00201172 6.97402344 0.00201172 8.4140625 -0.00390625 C9.75597656 -0.00197266 9.75597656 -0.00197266 11.125 0 C11.95128906 0.00112793 12.77757812 0.00225586 13.62890625 0.00341797 C15.5625 0.1328125 15.5625 0.1328125 16.5625 1.1328125 C16.6875 3.6328125 16.6875 3.6328125 16.5625 6.1328125 C14.26240227 8.43291023 8.71459334 7.31818615 5.625 7.3203125 C4.22604492 7.33868164 4.22604492 7.33868164 2.79882812 7.35742188 C1.90744141 7.35935547 1.01605469 7.36128906 0.09765625 7.36328125 C-0.723396 7.36739014 -1.54444824 7.37149902 -2.39038086 7.37573242 C-4.4375 7.1328125 -4.4375 7.1328125 -6.4375 5.1328125 C-5.71262739 0.34865329 -4.63289813 0.00632416 0 0 Z " fill="#114346" transform="translate(193.4375,249.8671875)"/>
<path d="M0 0 C1.27423828 -0.00193359 1.27423828 -0.00193359 2.57421875 -0.00390625 C3.91419922 0.00189453 3.91419922 0.00189453 5.28125 0.0078125 C6.17457031 0.00394531 7.06789062 0.00007812 7.98828125 -0.00390625 C8.83777344 -0.00261719 9.68726563 -0.00132812 10.5625 0 C11.34689453 0.00112793 12.13128906 0.00225586 12.93945312 0.00341797 C14.78125 0.1328125 14.78125 0.1328125 15.78125 1.1328125 C15.90625 3.6328125 15.90625 3.6328125 15.78125 6.1328125 C13.5415352 8.3725273 8.35227512 7.31813083 5.34375 7.3203125 C4.45880859 7.33255859 3.57386719 7.34480469 2.66210938 7.35742188 C1.81583984 7.35935547 0.96957031 7.36128906 0.09765625 7.36328125 C-0.68150146 7.36739014 -1.46065918 7.37149902 -2.26342773 7.37573242 C-4.21875 7.1328125 -4.21875 7.1328125 -6.21875 5.1328125 C-5.51320374 0.47620719 -4.52805169 0.00651117 0 0 Z " fill="#114145" transform="translate(222.21875,249.8671875)"/>
<path d="M0 0 C0.33 0 0.66 0 1 0 C1.28951652 5.59731932 1.18452849 9.1683016 -2 14 C-5.9124709 17.61903558 -8.86682979 19.1497241 -14.1875 19.0625 C-16.0746875 19.0315625 -16.0746875 19.0315625 -18 19 C-16.79804941 15.39414823 -15.91813839 15.09153019 -12.75 13.1875 C-8.58677527 10.5465991 -6.02269895 7.84707139 -3 4 C-2.34 4 -1.68 4 -1 4 C-0.67 2.68 -0.34 1.36 0 0 Z " fill="#F3D398" transform="translate(311,168)"/>
<path d="M0 0 C0.66 0 1.32 0 2 0 C3.68732277 1.98260426 5.35366057 3.9832342 7 6 C7.66 6.33 8.32 6.66 9 7 C9 7.66 9 8.32 9 9 C7.01739574 10.68732277 5.0167658 12.35366057 3 14 C2.67 14.66 2.34 15.32 2 16 C1.34 16 0.68 16 0 16 C-1.68732277 14.01739574 -3.35366057 12.0167658 -5 10 C-5.66 9.67 -6.32 9.34 -7 9 C-7 8.34 -7 7.68 -7 7 C-6.21625 6.54625 -5.4325 6.0925 -4.625 5.625 C-1.8764051 3.92348887 -1.12078968 2.95480916 0 0 Z " fill="#E6B970" transform="translate(203,189)"/>
<path d="M0 0 C-0.79664063 0.30292969 -1.59328125 0.60585937 -2.4140625 0.91796875 C-12.9934306 5.10080893 -17.87670044 8.85245631 -22.703125 19.2578125 C-24 22 -24 22 -26 25 C-27.375 22.625 -27.375 22.625 -28 19 C-24.92065456 11.34562705 -19.02074681 3.59129302 -11.375 0.125 C-3.66666667 -2.44444444 -3.66666667 -2.44444444 0 0 Z " fill="#E58B59" transform="translate(338,188)"/>
<path d="M0 0 C5.28 0 10.56 0 16 0 C11.52774917 4.47225083 10.36183255 5.63735986 4.8125 7.3125 C3.76707031 7.63863281 2.72164063 7.96476563 1.64453125 8.30078125 C-1 9 -1 9 -3 9 C-2.01 6.03 -1.02 3.06 0 0 Z " fill="#25807F" transform="translate(283,174)"/>
<path d="M0 0 C1.51400391 0.01740234 1.51400391 0.01740234 3.05859375 0.03515625 C4.07050781 0.04417969 5.08242187 0.05320312 6.125 0.0625 C7.29869141 0.07990234 7.29869141 0.07990234 8.49609375 0.09765625 C8.68359375 2.97265625 8.68359375 2.97265625 8.49609375 6.09765625 C4.45416397 8.79227611 2.29094415 8.32966514 -2.50390625 8.09765625 C-3.50390625 7.09765625 -3.50390625 7.09765625 -3.62890625 4.09765625 C-3.46379947 0.13509358 -3.46379947 0.13509358 0 0 Z " fill="#DAE1E5" transform="translate(110.50390625,336.90234375)"/>
<path d="M0 0 C0.66 0 1.32 0 2 0 C2 12.21 2 24.42 2 37 C1.67 37 1.34 37 1 37 C0.67 33.04 0.34 29.08 0 25 C-0.33 25 -0.66 25 -1 25 C-1.93269041 16.90711709 -2.23525961 9.08408789 -1 1 C-0.67 0.67 -0.34 0.34 0 0 Z " fill="#D8E0E2" transform="translate(129,324)"/>
<path d="M0 0 C0.66 0.33 1.32 0.66 2 1 C1.51391769 1.36680374 1.02783539 1.73360748 0.52702332 2.11152649 C-1.65225925 4.80665063 -1.39858332 6.77578185 -1.43237305 10.21557617 C-1.45216721 11.4966777 -1.47196136 12.77777924 -1.49235535 14.09770203 C-1.49912514 15.49612278 -1.50557201 16.89454512 -1.51171875 18.29296875 C-1.52856354 19.72359261 -1.54671351 21.15420164 -1.56611633 22.58479309 C-1.61364482 26.34780242 -1.64343541 30.11075169 -1.66955566 33.8739624 C-1.69934705 37.71492377 -1.74588218 41.55567807 -1.79101562 45.39648438 C-1.877081 52.93088691 -1.94441153 60.46530445 -2 68 C-2.33 68 -2.66 68 -3 68 C-3.06942626 59.42924152 -3.12277341 50.85859999 -3.15543652 42.28763008 C-3.17111101 38.30802626 -3.19238138 34.32861441 -3.22631836 30.34912109 C-3.25884887 26.51065044 -3.27683957 22.67236476 -3.28463173 18.83376694 C-3.29018666 17.36727866 -3.30103379 15.90080082 -3.31719017 14.43439102 C-3.33888161 12.38458409 -3.34197055 10.33554725 -3.34057617 8.28564453 C-3.34723801 7.11760284 -3.35389984 5.94956116 -3.36076355 4.74612427 C-3.24171158 3.83990326 -3.12265961 2.93368225 -3 2 C-2.01 1.34 -1.02 0.68 0 0 Z " fill="#DFE7EF" transform="translate(336,193)"/>
<path d="M0 0 C0.48230236 3.44980157 0.7114192 6.5736796 0 10 C-2.36456436 12.35937891 -4.94127906 13.7027746 -8 15 C-8.33 14.34 -8.66 13.68 -9 13 C-8.109375 10.72265625 -8.109375 10.72265625 -6.75 8.0625 C-6.31171875 7.18722656 -5.8734375 6.31195313 -5.421875 5.41015625 C-2.23014587 0 -2.23014587 0 0 0 Z " fill="#196A6C" transform="translate(327,199)"/>
<path d="M0 0 C0.8146875 0.00257813 1.629375 0.00515625 2.46875 0.0078125 C3.2834375 0.00523437 4.098125 0.00265625 4.9375 0 C6.96875 0.1328125 6.96875 0.1328125 7.96875 1.1328125 C7.96875 2.7828125 7.96875 4.4328125 7.96875 6.1328125 C4.33875 6.1328125 0.70875 6.1328125 -3.03125 6.1328125 C-3.03125 0.19819712 -3.03125 0.19819712 0 0 Z " fill="#D6DFE1" transform="translate(397.03125,327.8671875)"/>
<path d="M0 0 C0.8146875 0.00257813 1.629375 0.00515625 2.46875 0.0078125 C3.2834375 0.00523437 4.098125 0.00265625 4.9375 0 C6.96875 0.1328125 6.96875 0.1328125 7.96875 1.1328125 C7.96875 2.7828125 7.96875 4.4328125 7.96875 6.1328125 C4.33875 6.1328125 0.70875 6.1328125 -3.03125 6.1328125 C-3.03125 0.19819712 -3.03125 0.19819712 0 0 Z " fill="#D7DEE0" transform="translate(261.03125,327.8671875)"/>
<path d="M0 0 C1.37478516 0.01740234 1.37478516 0.01740234 2.77734375 0.03515625 C3.69644531 0.04417969 4.61554688 0.05320312 5.5625 0.0625 C6.27277344 0.07410156 6.98304688 0.08570313 7.71484375 0.09765625 C6.83984375 4.97265625 6.83984375 4.97265625 5.71484375 6.09765625 C3.04425524 6.23880786 0.39052137 6.14012732 -2.28515625 6.09765625 C-2.66734392 4.44150968 -2.99910727 2.77308601 -3.28515625 1.09765625 C-2.28515625 0.09765625 -2.28515625 0.09765625 0 0 Z " fill="#D8DEE1" transform="translate(339.28515625,338.90234375)"/>
<path d="M0 0 C-1 3 -1 3 -3 4 C-5.04055005 4.07065617 -7.08334257 4.08421976 -9.125 4.0625 C-10.22070312 4.05347656 -11.31640625 4.04445313 -12.4453125 4.03515625 C-13.70988281 4.01775391 -13.70988281 4.01775391 -15 4 C-15.33 2.68 -15.66 1.36 -16 0 C-13.7089095 -0.19441368 -11.41709663 -0.38033135 -9.125 -0.5625 C-7.21074219 -0.71912109 -7.21074219 -0.71912109 -5.2578125 -0.87890625 C-2 -1 -2 -1 0 0 Z " fill="#D6DEDF" transform="translate(274,340)"/>
<path d="M0 0 C2.625 0.375 2.625 0.375 5 1 C5.625 3.375 5.625 3.375 6 6 C5.34 6.66 4.68 7.32 4 8 C1.375 7.625 1.375 7.625 -1 7 C-1.625 4.625 -1.625 4.625 -2 2 C-1.34 1.34 -0.68 0.68 0 0 Z " fill="#26464E" transform="translate(292,311)"/>
<path d="M0 0 C2.625 0.375 2.625 0.375 5 1 C5.625 3.375 5.625 3.375 6 6 C5.34 6.66 4.68 7.32 4 8 C1.375 7.625 1.375 7.625 -1 7 C-1.625 4.625 -1.625 4.625 -2 2 C-1.34 1.34 -0.68 0.68 0 0 Z " fill="#25464C" transform="translate(213,311)"/>
<path d="M0 0 C0.33 0 0.66 0 1 0 C1 6.6 1 13.2 1 20 C1.66 20 2.32 20 3 20 C3.66 18.68 4.32 17.36 5 16 C6.0625 17.8125 6.0625 17.8125 7 20 C6.67 20.99 6.34 21.98 6 23 C4.02 22.67 2.04 22.34 0 22 C0 14.74 0 7.48 0 0 Z " fill="#25434A" transform="translate(193,328)"/>
<path d="M0 0 C1.67542976 0.28604898 3.34385343 0.61781233 5 1 C5 2.65 5 4.3 5 6 C2.625 6.625 2.625 6.625 0 7 C-0.66 6.34 -1.32 5.68 -2 5 C-1.46428571 1.46428571 -1.46428571 1.46428571 0 0 Z " fill="#0E3F40" transform="translate(247,250)"/>
<path d="M0 0 C1.32 0.33 2.64 0.66 4 1 C4.66 3.64 5.32 6.28 6 9 C5.34 9 4.68 9 4 9 C4 8.34 4 7.68 4 7 C2.68 6.34 1.36 5.68 0 5 C-0.99 5.99 -1.98 6.98 -3 8 C-1.125 1.125 -1.125 1.125 0 0 Z " fill="#123E42" transform="translate(203,177)"/>
<path d="M0 0 C0.66 0 1.32 0 2 0 C3.04449911 3.13349732 2.93423645 3.98968256 2 7 C1.01 7 0.02 7 -1 7 C-2.70532323 8.94009522 -2.70532323 8.94009522 -4 11 C-4.99 10.34 -5.98 9.68 -7 9 C-7 8.34 -7 7.68 -7 7 C-6.21625 6.54625 -5.4325 6.0925 -4.625 5.625 C-1.8764051 3.92348887 -1.12078968 2.95480916 0 0 Z " fill="#DEBC77" transform="translate(203,189)"/>
<path d="M0 0 C0.66 0.33 1.32 0.66 2 1 C1.5155542 1.39421143 1.0311084 1.78842285 0.53198242 2.19458008 C-1.44186491 4.52073163 -1.42012916 5.8642623 -1.51171875 8.88671875 C-1.54716797 9.82451172 -1.58261719 10.76230469 -1.61914062 11.72851562 C-1.64169922 12.70498047 -1.66425781 13.68144531 -1.6875 14.6875 C-1.72166016 15.67556641 -1.75582031 16.66363281 -1.79101562 17.68164062 C-1.87350538 20.12098053 -1.94265068 22.55996063 -2 25 C-2.33 25 -2.66 25 -3 25 C-3.0867982 21.20847666 -3.14032207 17.41720704 -3.1875 13.625 C-3.21263672 12.54476562 -3.23777344 11.46453125 -3.26367188 10.3515625 C-3.27333984 9.3203125 -3.28300781 8.2890625 -3.29296875 7.2265625 C-3.31653442 5.79691162 -3.31653442 5.79691162 -3.34057617 4.33837891 C-3.22818604 3.56671387 -3.1157959 2.79504883 -3 2 C-2.01 1.34 -1.02 0.68 0 0 Z " fill="#D5DFE6" transform="translate(336,193)"/>
<path d="M0 0 C0.33 0.66 0.66 1.32 1 2 C0.01 3.32 -0.98 4.64 -2 6 C-1.67 6.66 -1.34 7.32 -1 8 C-3.31 8.33 -5.62 8.66 -8 9 C-7.67 7.68 -7.34 6.36 -7 5 C-7 5.66 -7 6.32 -7 7 C-6.34 7 -5.68 7 -5 7 C-4.731875 6.401875 -4.46375 5.80375 -4.1875 5.1875 C-3.01506533 3.02775192 -1.80630718 1.64209744 0 0 Z " fill="#223A39" transform="translate(210,198)"/>
<path d="M0 0 C0.99 0.66 1.98 1.32 3 2 C2.34 2 1.68 2 1 2 C0.566875 3.2065625 0.566875 3.2065625 0.125 4.4375 C-1 7 -1 7 -3 8 C-3 7.34 -3 6.68 -3 6 C-3.66 6 -4.32 6 -5 6 C-3.63016497 2.83884224 -3.0109362 2.0072908 0 0 Z " fill="#1F3B3B" transform="translate(202,187)"/>
<path d="M0 0 C0.66 0.33 1.32 0.66 2 1 C1.125 4.875 1.125 4.875 0 6 C-2.18639453 6.07258946 -4.37500389 6.08373783 -6.5625 6.0625 C-8.35880859 6.04896484 -8.35880859 6.04896484 -10.19140625 6.03515625 C-11.11824219 6.02355469 -12.04507812 6.01195312 -13 6 C-13 5.67 -13 5.34 -13 5 C-9.04 5 -5.08 5 -1 5 C-0.67 3.35 -0.34 1.7 0 0 Z " fill="#16333A" transform="translate(273,345)"/>
<path d="M0 0 C1.46726798 3.81489674 0.43336419 6.29011622 -1 10 C-3 7 -3 7 -4 4 C-2.68 2.68 -1.36 1.36 0 0 Z " fill="#E07A58" transform="translate(314,203)"/>
<path d="M0 0 C0.33 0.66 0.66 1.32 1 2 C1.99 2.33 2.98 2.66 4 3 C3.67 3.99 3.34 4.98 3 6 C0.36 5.01 -2.28 4.02 -5 3 C-4.67 2.34 -4.34 1.68 -4 1 C-1.9375 0.375 -1.9375 0.375 0 0 Z " fill="#D6BA7F" transform="translate(292,185)"/>
<path d="M0 0 C1.74627478 2.61941217 2.38722388 4.03824877 3 7 C2.360625 7.12375 1.72125 7.2475 1.0625 7.375 C0.0415625 7.684375 0.0415625 7.684375 -1 8 C-1.33 8.66 -1.66 9.32 -2 10 C-2.66 9.67 -3.32 9.34 -4 9 C-2.68 6.03 -1.36 3.06 0 0 Z " fill="#D7C491" transform="translate(312,162)"/>
<path d="M0 0 C1.32 0.66 2.64 1.32 4 2 C3.34 2.66 2.68 3.32 2 4 C1.01 4 0.02 4 -1 4 C-1.33 5.32 -1.66 6.64 -2 8 C-2.33 7.34 -2.66 6.68 -3 6 C-1.44444444 1.44444444 -1.44444444 1.44444444 0 0 Z " fill="#144B4C" transform="translate(203,177)"/>
<path d="M0 0 C-0.99 1.32 -1.98 2.64 -3 4 C-3.99 3.34 -4.98 2.68 -6 2 C-6 1.34 -6 0.68 -6 0 C-3.50907189 -1.24546405 -2.58919267 -0.7767578 0 0 Z " fill="#D7B171" transform="translate(202,196)"/>
<path d="M0 0 C0 0.66 0 1.32 0 2 C0.66 2.33 1.32 2.66 2 3 C-2.455 3.495 -2.455 3.495 -7 4 C-7 3.34 -7 2.68 -7 2 C-2.25 0 -2.25 0 0 0 Z " fill="#1E3632" transform="translate(337,188)"/>
</svg>
